<?xml version="1.0" encoding="utf-8"?>
<!-- Generator: Adobe Illustrator 18.1.0, SVG Export Plug-In . SVG Version: 6.00 Build 0)  -->
<!DOCTYPE svg PUBLIC "-//W3C//DTD SVG 1.1//EN" "http://www.w3.org/Graphics/SVG/1.1/DTD/svg11.dtd">
<svg version="1.1" id="Layer_1" xmlns="http://www.w3.org/2000/svg" xmlns:xlink="http://www.w3.org/1999/xlink" x="0px" y="0px"
	 viewBox="0 0 137 137" enable-background="new 0 0 137 137" xml:space="preserve">
<circle fill="#3BC2D5" cx="68.5" cy="68.5" r="68.5"/>
<circle fill="#F3F3F3" cx="593.3" cy="46.4" r="56.2"/>
<circle fill="#737474" cx="743.3" cy="168.7" r="56.2"/>
<circle fill="#A6A6A6" cx="593.3" cy="170.1" r="56.2"/>
<circle fill="#3BC2D5" cx="743.3" cy="37.9" r="47.8"/>
<circle fill="#3BC2D5" stroke="#FFFFFF" stroke-width="5" stroke-miterlimit="10" cx="68.5" cy="68.5" r="48.4"/>
<path fill="#3BC2D5" stroke="#FFFFFF" stroke-width="5" stroke-miterlimit="10" d="M114.8,68.5c-2,0-11.3-3.5-12.7-7.9
	s-12.7,0-20.3,3.3s-9-10.3-17-17s19-23.3,19-23.3"/>
<path fill="none" stroke="#FFFFFF" stroke-width="5" stroke-miterlimit="10" d="M36.1,33.3c0,0,26.7,17,18.7,23S48.8,77,40.1,72
	s7.7,8.7,8.2,14.3c0.5,5.7,6.8,12.3,2.8,15c-4,2.7-13,4.3-13,4.3"/>
<path fill="#3BC2D5" stroke="#FFFFFF" stroke-width="5" stroke-miterlimit="10" d="M81.3,78.5c0,0-5.5,9.5-1.7,14.5
	c3.8,5,6.7,6.7,9.8,5.2c3.1-1.4,6.9-6.9,9-5.9c2.1,1,1.7-5.9,0-10.5s-5-10.2-8.1-7.1S81.3,78.5,81.3,78.5z"/>
</svg>
