<?xml version="1.0" encoding="utf-8"?>
<!-- Generator: Adobe Illustrator 18.1.0, SVG Export Plug-In . SVG Version: 6.00 Build 0)  -->
<!DOCTYPE svg PUBLIC "-//W3C//DTD SVG 1.1//EN" "http://www.w3.org/Graphics/SVG/1.1/DTD/svg11.dtd">
<svg version="1.1" id="Layer_1" xmlns="http://www.w3.org/2000/svg" xmlns:xlink="http://www.w3.org/1999/xlink" x="0px" y="0px"
	 viewBox="0 0 137 137" enable-background="new 0 0 137 137" xml:space="preserve">
<circle fill="#3BC2D5" cx="68.5" cy="68.5" r="68.5"/>
<circle fill="#F3F3F3" cx="593.3" cy="46.4" r="56.2"/>
<circle fill="#737474" cx="743.3" cy="168.7" r="56.2"/>
<circle fill="#A6A6A6" cx="593.3" cy="170.1" r="56.2"/>
<path fill="none" stroke="#FFFFFF" stroke-width="5" stroke-miterlimit="10" d="M100.1,112l-5.7,6.8c-2.8,3.4-8,3.9-11.4,1.1l-2.4-2
	c-3.4-2.8-3.9-8-1.1-11.4l5.7-6.8c2.8-3.4,8-3.9,11.4-1.1l2.4,2C102.4,103.5,102.9,108.6,100.1,112z"/>
<circle fill="#3BC2D5" cx="743.3" cy="37.9" r="47.8"/>
<rect x="49.1" y="52.4" transform="matrix(0.6374 -0.7706 0.7706 0.6374 -43.8732 78.6494)" fill="#3BC2D5" stroke="#FFFFFF" stroke-width="5" stroke-miterlimit="10" width="25" height="67.2"/>
<line fill="none" stroke="#FFFFFF" stroke-width="5" stroke-miterlimit="10" x1="32.8" y1="68.1" x2="84.6" y2="110.9"/>
<line fill="none" stroke="#FFFFFF" stroke-width="5" stroke-miterlimit="10" x1="37.9" y1="61.9" x2="89.7" y2="104.7"/>
<polygon fill="none" stroke="#FFFFFF" stroke-width="5" stroke-miterlimit="10" points="24.9,69.8 17.6,49.1 38.6,53.2 "/>
<rect x="48.5" y="16" fill="none" width="36.7" height="31.3"/>
<text transform="matrix(1 0 0 1 48.4614 44.3557)" fill="#FFFFFF" font-family="'MyriadPro-Regular'" font-size="40">?</text>
<rect x="80.8" y="22" fill="none" width="44" height="43"/>
<text transform="matrix(1 0 0 1 80.7951 64.5559)" fill="#FFFFFF" font-family="'MyriadPro-Regular'" font-size="60">?</text>
<rect x="108.1" y="59.4" fill="none" width="36.7" height="31.3"/>
<text transform="matrix(1 0 0 1 108.1457 87.8388)" fill="#FFFFFF" font-family="'MyriadPro-Regular'" font-size="40">?</text>
</svg>
