<?xml version="1.0" encoding="utf-8"?>
<!-- Generator: Adobe Illustrator 18.1.0, SVG Export Plug-In . SVG Version: 6.00 Build 0)  -->
<!DOCTYPE svg PUBLIC "-//W3C//DTD SVG 1.1//EN" "http://www.w3.org/Graphics/SVG/1.1/DTD/svg11.dtd">
<svg version="1.1" id="Layer_1" xmlns="http://www.w3.org/2000/svg" xmlns:xlink="http://www.w3.org/1999/xlink" x="0px" y="0px"
	 viewBox="0 0 137 137" enable-background="new 0 0 137 137" xml:space="preserve">
<circle fill="#3BC2D5" cx="68.5" cy="68.5" r="68.5"/>
<circle fill="#F3F3F3" cx="593.3" cy="46.4" r="56.2"/>
<circle fill="#737474" cx="743.3" cy="168.7" r="56.2"/>
<circle fill="#A6A6A6" cx="593.3" cy="170.1" r="56.2"/>
<circle fill="#3BC2D5" cx="743.3" cy="37.9" r="47.8"/>
<g>
	<defs>
		<path id="SVGID_1_" d="M137,68.5c0,21-9.4,39.8-24.3,52.3c-4.5,3.8-9.5,7-14.9,9.6c-8.9,4.2-18.8,6.6-29.3,6.6
			c-11.4,0-22.2-2.8-31.6-7.7c-5.4-2.8-10.4-6.3-14.8-10.4v0C8.5,106.3,0,88.4,0,68.5C0,30.7,30.7,0,68.5,0
			C106.3,0,137,30.7,137,68.5z"/>
	</defs>
	<clipPath id="SVGID_2_">
		<use xlink:href="#SVGID_1_"  overflow="visible"/>
	</clipPath>
	<g clip-path="url(#SVGID_2_)">
		<path fill="none" stroke="#FFFFFF" stroke-width="5" stroke-miterlimit="10" d="M113.2,121c0,2.4-0.2,4.8-0.5,7.2
			c-4.5,4.1-9.5,7.6-14.9,10.3c-8.9,4.5-18.8,7.1-29.3,7.1c-11.4,0-22.2-3-31.6-8.3c-5.4-3-10.4-6.8-14.8-11.2v0
			c-0.2-1.7-0.2-3.3-0.2-5c0-20.7,12-38.5,28.9-45.7c5.2-2.2,10.9-3.4,16.8-3.4c6.2,0,12.2,1.4,17.6,3.8
			C101.6,83.1,113.2,100.6,113.2,121z"/>
		<path fill="none" stroke="#FFFFFF" stroke-width="5" stroke-miterlimit="10" d="M36.9,137.2c-0.7-2.8-1-5.7-1-8.7
			c0-4.2,0.7-8.3,2-12"/>
		<path fill="none" stroke="#FFFFFF" stroke-width="5" stroke-miterlimit="10" d="M97.1,116.4c1.3,3.7,2,7.8,2,12
			c0,3.5-0.5,6.8-1.4,9.9"/>
		<ellipse fill="#3BC2D5" stroke="#FFFFFF" stroke-width="5" stroke-miterlimit="10" cx="68.1" cy="52.7" rx="27.3" ry="29.4"/>
	</g>
</g>
</svg>
